<svg width="37" height="38" viewBox="0 0 37 38" fill="none" xmlns="http://www.w3.org/2000/svg">
<g clip-path="url(#clip0_1_5498)">
<path d="M5.52371 14.7266C7.29727 14.7266 8.74017 13.2836 8.74017 11.5101C8.74017 11.0117 8.62616 10.5395 8.42295 10.1178L12.0268 6.46069C12.5873 6.9348 13.3111 7.22149 14.1009 7.22149C14.9634 7.22149 15.7471 6.87962 16.3253 6.32496L19.6034 9.49353C19.5114 9.7923 19.4617 10.1094 19.4617 10.438C19.4617 12.2115 20.9045 13.6544 22.6782 13.6544C24.4264 13.6544 25.8523 12.2522 25.8928 10.5135L28.9913 8.43145C29.573 9.00856 30.3731 9.3658 31.2554 9.3658C33.029 9.3658 34.4718 7.92282 34.4718 6.14934C34.4718 4.37586 33.029 2.93288 31.2554 2.93288C29.4818 2.93288 28.0389 4.37586 28.0389 6.14934C28.0389 6.25984 28.0446 6.36906 28.0554 6.4767L25.1745 8.41258C24.5843 7.68652 23.6847 7.22149 22.6782 7.22149C22.0197 7.22149 21.4072 7.4207 20.8967 7.7615L17.3041 4.28887C17.3124 4.19523 17.3174 4.10074 17.3174 4.00503C17.3174 2.23148 15.8746 0.788574 14.1009 0.788574C12.3274 0.788574 10.8845 2.23155 10.8845 4.00503C10.8845 4.18108 10.8993 4.35377 10.9266 4.52224L6.90329 8.60507C6.48493 8.40558 6.01719 8.29365 5.52371 8.29365C3.75015 8.29365 2.30725 9.73662 2.30725 11.5101C2.30725 13.2836 3.75023 14.7266 5.52371 14.7266Z" fill="#292929"/>
<path d="M33.3996 35.0974V14.7265H29.111V35.0974H24.8224V17.9429H20.5338V35.0974H16.2452V11.51H11.9566V35.0974H7.66794V20.0872H3.37933V35.0974H0.162872V37.2417H36.6161V35.0974H33.3996Z" fill="#292929"/>
</g>
<defs>
<clipPath id="clip0_1_5498">
<rect width="36.4532" height="36.4532" fill="white" transform="translate(0.162979 0.788574)"/>
</clipPath>
</defs>
</svg>
