<svg width="44" height="45" viewBox="0 0 44 45" fill="none" xmlns="http://www.w3.org/2000/svg">
<path d="M17.6621 15.1872C17.6798 12.0158 17.8204 10.2982 18.9408 9.17783C20.2221 7.89661 22.2842 7.89661 26.4083 7.89661H27.8665C31.9906 7.89661 34.0529 7.89661 35.334 9.17783C36.6152 10.4591 36.6152 12.5212 36.6152 16.6454V28.3104C36.6152 32.4346 36.6152 34.4967 35.334 35.7779C34.0529 37.0592 31.9906 37.0592 27.8665 37.0592H26.4083C22.2842 37.0592 20.2221 37.0592 18.9408 35.7779C17.8204 34.6575 17.6798 32.94 17.6621 29.7685" stroke="#E43D3D" stroke-width="2.73399" stroke-linecap="round"/>
<path d="M26.4088 22.478H7.45312M7.45312 22.478L12.5566 18.1036M7.45312 22.478L12.5566 26.8524" stroke="#E43D3D" stroke-width="2.73399" stroke-linecap="round" stroke-linejoin="round"/>
</svg>
