<svg width="37" height="37" viewBox="0 0 37 37" fill="none" xmlns="http://www.w3.org/2000/svg">
<g clip-path="url(#clip0_1_5507)">
<path d="M18.3892 9.24487C13.2743 9.24487 9.13126 13.3878 9.13126 18.5028C9.13126 23.6179 13.2742 27.7608 18.3892 27.7608C23.5043 27.7608 27.6472 23.6179 27.6472 18.5028C27.6472 13.3878 23.5043 9.24487 18.3892 9.24487ZM18.262 17.577L18.9332 17.739C20.1946 18.063 21.074 19.1855 21.074 20.4932V20.7825C21.074 21.9629 20.3103 22.9581 19.2572 23.3285V24.0923C19.2572 24.5667 18.8637 24.9602 18.3892 24.9602C17.9148 24.9602 17.5213 24.5667 17.5213 24.0923V23.3285C16.4683 22.9581 15.7045 21.9629 15.7045 20.7825C15.7045 20.2966 16.0864 19.9146 16.5724 19.9146C17.0468 19.9146 17.4403 20.2966 17.4403 20.7825C17.4403 21.3034 17.8685 21.7315 18.3892 21.7315C18.9099 21.7315 19.3382 21.3032 19.3382 20.7825V20.4932C19.3382 19.9841 19.0026 19.5558 18.5165 19.4285L17.8453 19.2665C16.5839 18.9426 15.7043 17.82 15.7043 16.5124V16.223C15.7043 15.0426 16.4681 14.0475 17.5212 13.6771V12.9133C17.5212 12.4389 17.9147 12.0454 18.3891 12.0454C18.8636 12.0454 19.257 12.4389 19.257 12.9133V13.6771C20.3102 14.0475 21.0739 15.0426 21.0739 16.223C21.0739 16.709 20.6919 17.091 20.206 17.091C19.7315 17.091 19.338 16.709 19.338 16.223C19.338 15.7022 18.9098 15.2741 18.3891 15.2741C17.8684 15.2741 17.4402 15.7023 17.4402 16.223V16.5124C17.4402 17.0215 17.7759 17.4498 18.262 17.577Z" fill="#292929"/>
<path d="M20.7041 4.32653C20.4821 4.32653 20.2599 4.24178 20.0904 4.07227L18.3895 2.37138L16.6887 4.07227C16.3496 4.41128 15.8003 4.41128 15.4613 4.07227C15.1223 3.73325 15.1223 3.18395 15.4613 2.84493L17.776 0.530384C18.115 0.191369 18.6643 0.191369 19.0033 0.530384L21.3178 2.84482C21.6568 3.18384 21.6568 3.73314 21.3178 4.07215C21.1483 4.24166 20.9261 4.32653 20.7041 4.32653Z" fill="#292929"/>
<path d="M18.3899 6.64097C17.9108 6.64097 17.522 6.25217 17.522 5.77304V1.14405C17.522 0.664919 17.9108 0.276123 18.3899 0.276123C18.869 0.276123 19.2578 0.664919 19.2578 1.14405V5.77304C19.2578 6.25217 18.869 6.64097 18.3899 6.64097Z" fill="#292929"/>
<path d="M4.47901 8.73287C3.99988 8.73287 3.61108 8.34408 3.61108 7.86494V4.59156C3.61108 4.11243 3.99988 3.72363 4.47901 3.72363H7.7524C8.23153 3.72363 8.62032 4.11243 8.62032 4.59156C8.62032 5.07069 8.23153 5.45949 7.7524 5.45949H5.34694V7.86494C5.34694 8.34408 4.95814 8.73287 4.47901 8.73287Z" fill="#292929"/>
<path d="M9.3888 10.3693C9.16678 10.3693 8.94464 10.2845 8.77514 10.115L3.86535 5.20523C3.52633 4.86621 3.52633 4.31691 3.86535 3.97789C4.20436 3.63888 4.75366 3.63888 5.09268 3.97789L10.0025 8.88768C10.3415 9.2267 10.3415 9.776 10.0025 10.115C9.83296 10.2845 9.61083 10.3693 9.3888 10.3693Z" fill="#292929"/>
<path d="M7.7524 33.2819H4.47901C3.99988 33.2819 3.61108 32.8931 3.61108 32.414V29.1406C3.61108 28.6615 3.99988 28.2727 4.47901 28.2727C4.95814 28.2727 5.34694 28.6615 5.34694 29.1406V31.5461H7.7524C8.23153 31.5461 8.62032 31.9349 8.62032 32.414C8.62032 32.8931 8.23153 33.2819 7.7524 33.2819Z" fill="#292929"/>
<path d="M4.47901 33.2819C4.25699 33.2819 4.03485 33.1971 3.86535 33.0276C3.52633 32.6886 3.52633 32.1393 3.86535 31.8003L8.77514 26.8905C9.11415 26.5515 9.66345 26.5515 10.0025 26.8905C10.3415 27.2295 10.3415 27.7788 10.0025 28.1178L5.09268 33.0276C4.92317 33.1971 4.70103 33.2819 4.47901 33.2819Z" fill="#292929"/>
<path d="M32.3012 33.2819H29.0278C28.5487 33.2819 28.1599 32.8931 28.1599 32.414C28.1599 31.9349 28.5487 31.5461 29.0278 31.5461H31.4332V29.1406C31.4332 28.6615 31.822 28.2727 32.3012 28.2727C32.7803 28.2727 33.1691 28.6615 33.1691 29.1406V32.414C33.1691 32.8931 32.7803 33.2819 32.3012 33.2819Z" fill="#292929"/>
<path d="M32.3011 33.2819C32.0791 33.2819 31.8569 33.1971 31.6874 33.0276L26.7776 28.1178C26.4386 27.7788 26.4386 27.2295 26.7776 26.8905C27.1167 26.5515 27.666 26.5515 28.005 26.8905L32.9148 31.8003C33.2538 32.1393 33.2538 32.6886 32.9148 33.0276C32.7453 33.1971 32.5231 33.2819 32.3011 33.2819Z" fill="#292929"/>
<path d="M32.3012 8.73287C31.822 8.73287 31.4332 8.34408 31.4332 7.86494V5.45949H29.0278C28.5487 5.45949 28.1599 5.07069 28.1599 4.59156C28.1599 4.11243 28.5487 3.72363 29.0278 3.72363H32.3012C32.7803 3.72363 33.1691 4.11243 33.1691 4.59156V7.86494C33.1691 8.34408 32.7803 8.73287 32.3012 8.73287Z" fill="#292929"/>
<path d="M27.3913 10.3693C27.1693 10.3693 26.9471 10.2845 26.7776 10.115C26.4386 9.776 26.4386 9.2267 26.7776 8.88768L31.6874 3.97789C32.0264 3.63888 32.5757 3.63888 32.9148 3.97789C33.2538 4.31691 33.2538 4.86621 32.9148 5.20523L28.005 10.115C27.8355 10.2845 27.6133 10.3693 27.3913 10.3693Z" fill="#292929"/>
<path d="M3.34535 21.6854C3.12333 21.6854 2.90119 21.6006 2.73168 21.4311L0.417133 19.1166C0.0781186 18.7776 0.0781186 18.2283 0.417133 17.8893L2.73157 15.5748C3.07058 15.2358 3.61989 15.2358 3.9589 15.5748C4.29792 15.9138 4.29792 16.4631 3.9589 16.8022L2.25802 18.503L3.9589 20.2039C4.29792 20.5429 4.29792 21.0922 3.9589 21.4313C3.7894 21.6008 3.56737 21.6854 3.34535 21.6854Z" fill="#292929"/>
<path d="M5.65979 19.3706H1.0308C0.551668 19.3706 0.162872 18.9818 0.162872 18.5027C0.162872 18.0236 0.551668 17.6348 1.0308 17.6348H5.65979C6.13892 17.6348 6.52772 18.0236 6.52772 18.5027C6.52772 18.9818 6.13892 19.3706 5.65979 19.3706Z" fill="#292929"/>
<path d="M18.3894 36.7292C18.1674 36.7292 17.9453 36.6445 17.7758 36.475L15.4613 34.1606C15.1223 33.8215 15.1223 33.2722 15.4613 32.9332C15.8003 32.5942 16.3496 32.5942 16.6887 32.9332L18.3895 34.6341L20.0904 32.9332C20.4294 32.5942 20.9787 32.5942 21.3178 32.9332C21.6568 33.2722 21.6568 33.8215 21.3178 34.1606L19.0033 36.475C18.8338 36.6445 18.6114 36.7292 18.3894 36.7292Z" fill="#292929"/>
<path d="M18.3899 36.7293C17.9108 36.7293 17.522 36.3405 17.522 35.8614V31.2324C17.522 30.7533 17.9108 30.3645 18.3899 30.3645C18.869 30.3645 19.2578 30.7533 19.2578 31.2324V35.8614C19.2578 36.3405 18.869 36.7293 18.3899 36.7293Z" fill="#292929"/>
<path d="M33.4341 21.6853C33.212 21.6853 32.9899 21.6005 32.8204 21.431C32.4814 21.092 32.4814 20.5427 32.8204 20.2037L34.5213 18.5028L32.8204 16.8019C32.4814 16.4629 32.4814 15.9136 32.8204 15.5746C33.1594 15.2356 33.7087 15.2356 34.0477 15.5746L36.3622 17.889C36.7012 18.228 36.7012 18.7773 36.3622 19.1163L34.0477 21.4308C33.8782 21.6003 33.6561 21.6853 33.4341 21.6853Z" fill="#292929"/>
<path d="M35.7482 19.3706H31.1192C30.64 19.3706 30.2512 18.9818 30.2512 18.5027C30.2512 18.0236 30.64 17.6348 31.1192 17.6348H35.7482C36.2273 17.6348 36.6161 18.0236 36.6161 18.5027C36.6161 18.9818 36.2273 19.3706 35.7482 19.3706Z" fill="#292929"/>
</g>
<defs>
<clipPath id="clip0_1_5507">
<rect width="36.4532" height="36.4532" fill="white" transform="translate(0.162979 0.276123)"/>
</clipPath>
</defs>
</svg>
