<svg width="34" height="31" viewBox="0 0 34 31" fill="none" xmlns="http://www.w3.org/2000/svg">
<path d="M17.389 5.89357C15.4739 5.89357 13.6018 6.46146 12.0094 7.52543C10.4171 8.5894 9.17601 10.1017 8.44314 11.871C7.71026 13.6403 7.51851 15.5872 7.89212 17.4655C8.26574 19.3438 9.18795 21.0691 10.5421 22.4233C11.8963 23.7775 13.6216 24.6997 15.4999 25.0733C17.3782 25.4469 19.3251 25.2551 21.0944 24.5223C22.8637 23.7894 24.376 22.5483 25.44 20.956C26.5039 19.3636 27.0718 17.4915 27.0718 15.5764C27.0682 13.0095 26.0469 10.5487 24.2318 8.73361C22.4167 6.9185 19.9559 5.89718 17.389 5.89357ZM20.2369 16.146H17.9585V18.4244C17.9585 18.5754 17.8985 18.7203 17.7917 18.8271C17.6849 18.9339 17.54 18.9939 17.389 18.9939C17.2379 18.9939 17.093 18.9339 16.9862 18.8271C16.8794 18.7203 16.8194 18.5754 16.8194 18.4244V16.146H14.541C14.39 16.146 14.2451 16.086 14.1383 15.9792C14.0315 15.8724 13.9715 15.7275 13.9715 15.5764C13.9715 15.4254 14.0315 15.2805 14.1383 15.1737C14.2451 15.0669 14.39 15.0069 14.541 15.0069H16.8194V12.7285C16.8194 12.5775 16.8794 12.4326 16.9862 12.3258C17.093 12.219 17.2379 12.159 17.389 12.159C17.54 12.159 17.6849 12.219 17.7917 12.3258C17.8985 12.4326 17.9585 12.5775 17.9585 12.7285V15.0069H20.2369C20.3879 15.0069 20.5328 15.0669 20.6396 15.1737C20.7464 15.2805 20.8064 15.4254 20.8064 15.5764C20.8064 15.7275 20.7464 15.8724 20.6396 15.9792C20.5328 16.086 20.3879 16.146 20.2369 16.146ZM33.3372 17.57C33.1862 17.57 33.0413 17.63 32.9345 17.7368C32.8277 17.8436 32.7676 17.9885 32.7676 18.1396V29.5312H26.5023C26.3512 29.5312 26.2063 29.5912 26.0995 29.698C25.9927 29.8048 25.9327 29.9497 25.9327 30.1008C25.9327 30.2518 25.9927 30.3967 26.0995 30.5035C26.2063 30.6103 26.3512 30.6704 26.5023 30.6704H33.3372C33.4883 30.6704 33.6332 30.6103 33.74 30.5035C33.8468 30.3967 33.9068 30.2518 33.9068 30.1008V18.1396C33.9068 17.9885 33.8468 17.8436 33.74 17.7368C33.6332 17.63 33.4883 17.57 33.3372 17.57ZM8.27565 29.5312H2.01026V18.1396C2.01026 17.9885 1.95025 17.8436 1.84343 17.7368C1.73661 17.63 1.59174 17.57 1.44068 17.57C1.28961 17.57 1.14474 17.63 1.03792 17.7368C0.931103 17.8436 0.871094 17.9885 0.871094 18.1396V30.1008C0.871094 30.2518 0.931103 30.3967 1.03792 30.5035C1.14474 30.6103 1.28961 30.6704 1.44068 30.6704H8.27565C8.42671 30.6704 8.57159 30.6103 8.67841 30.5035C8.78522 30.3967 8.84523 30.2518 8.84523 30.1008C8.84523 29.9497 8.78522 29.8048 8.67841 29.698C8.57159 29.5912 8.42671 29.5312 8.27565 29.5312ZM33.3372 0.482544H26.5023C26.3512 0.482544 26.2063 0.542553 26.0995 0.649371C25.9927 0.756188 25.9327 0.901063 25.9327 1.05213C25.9327 1.20319 25.9927 1.34806 26.0995 1.45488C26.2063 1.5617 26.3512 1.62171 26.5023 1.62171H32.7676V13.0133C32.7676 13.1644 32.8277 13.3093 32.9345 13.4161C33.0413 13.5229 33.1862 13.5829 33.3372 13.5829C33.4883 13.5829 33.6332 13.5229 33.74 13.4161C33.8468 13.3093 33.9068 13.1644 33.9068 13.0133V1.05213C33.9068 0.901063 33.8468 0.756188 33.74 0.649371C33.6332 0.542553 33.4883 0.482544 33.3372 0.482544ZM8.27565 0.482544H1.44068C1.28961 0.482544 1.14474 0.542553 1.03792 0.649371C0.931103 0.756188 0.871094 0.901063 0.871094 1.05213V13.0133C0.871094 13.1644 0.931103 13.3093 1.03792 13.4161C1.14474 13.5229 1.28961 13.5829 1.44068 13.5829C1.59174 13.5829 1.73661 13.5229 1.84343 13.4161C1.95025 13.3093 2.01026 13.1644 2.01026 13.0133V1.62171H8.27565C8.42671 1.62171 8.57159 1.5617 8.67841 1.45488C8.78522 1.34806 8.84523 1.20319 8.84523 1.05213C8.84523 0.901063 8.78522 0.756188 8.67841 0.649371C8.57159 0.542553 8.42671 0.482544 8.27565 0.482544Z" fill="#292929"/>
</svg>
